# xmcd CD database file
#
# Track frame offsets:
#	150
#	12015
#	26122
#	45210
#	56842
#	68775
#	82808
#	94740
#	108571
#	120705
#	133965
#
# Disc length: 1949 seconds
#
# Revision: 0
# Processed by: cddbd v1.5.1PL2 Copyright (c) Steve Scherf et al.
# Submitted via: CDex 1.51
#
DISCID=8c079b0b
DTITLE=Louis Prima - Louis Prima
DYEAR=2001
DGENRE=Jazz
TTITLE0=Oh Marie
TTITLE1=Chinatown, My Chinatown
TTITLE2=Angelina
TTITLE3=I've Got You Under My Skin
TTITLE4=Josephina, Please No Lean On The Bell
TTITLE5=Felicia
TTITLE6=Marguarita
TTITLE7=Clarinet Boogie Blues
TTITLE8=Boogie Woogie
TTITLE9=Coney Island Boogie
TTITLE10=St. Louis Blues
EXTD=YEAR: 2001
EXTT0=
EXTT1=
EXTT2=
EXTT3=
EXTT4=
EXTT5=
EXTT6=
EXTT7=
EXTT8=
EXTT9=
EXTT10=
PLAYORDER=
